<svg width="24" height="24" viewBox="0 0 24 24" fill="none" xmlns="http://www.w3.org/2000/svg">
<path fill-rule="evenodd" clip-rule="evenodd" d="M12 3C8.96243 3 6.5 5.46243 6.5 8.5C6.5 11.5376 8.96243 14 12 14C15.0376 14 17.5 11.5376 17.5 8.5C17.5 5.46243 15.0376 3 12 3ZM4.5 8.5C4.5 4.35786 7.85786 1 12 1C16.1421 1 19.5 4.35786 19.5 8.5C19.5 10.4691 18.7412 12.2609 17.5 13.5991V22C17.5 22.3466 17.3205 22.6684 17.0257 22.8507C16.7309 23.0329 16.3628 23.0494 16.0528 22.8944L12 20.868L7.94721 22.8944C7.63723 23.0494 7.26909 23.0329 6.97427 22.8507C6.67945 22.6684 6.5 22.3466 6.5 22V13.5991C5.25883 12.2609 4.5 10.4691 4.5 8.5ZM8.5 15.135V20.382L11.5528 18.8556C11.8343 18.7148 12.1657 18.7148 12.4472 18.8556L15.5 20.382V15.135C14.4551 15.6873 13.2641 16 12 16C10.7359 16 9.54486 15.6873 8.5 15.135ZM10.9672 6.97849C10.9614 6.99626 10.9545 7.01341 10.9465 7.02986C10.8883 7.14961 10.7739 7.23273 10.642 7.25107C10.6239 7.25359 10.6054 7.25489 10.5867 7.25489H8.47572C8.08823 7.25489 7.92712 7.75073 8.2406 7.97849L9.94846 9.21932C9.96357 9.2303 9.97774 9.2422 9.99091 9.25488C10.0868 9.34723 10.1305 9.48173 10.1072 9.6128C10.104 9.63082 10.0995 9.64877 10.0938 9.66653L9.44142 11.6742C9.32168 12.0428 9.74347 12.3492 10.057 12.1214L11.7648 10.8806C11.7799 10.8696 11.7956 10.8598 11.8118 10.8512C11.9292 10.7886 12.0706 10.7886 12.1881 10.8512C12.2042 10.8598 12.2199 10.8696 12.235 10.8806L13.9429 12.1214C14.2564 12.3492 14.6782 12.0428 14.5584 11.6742L13.9061 9.66653C13.9003 9.64877 13.8958 9.63082 13.8926 9.6128C13.8693 9.48173 13.913 9.34723 14.0089 9.25488C14.0221 9.2422 14.0363 9.2303 14.0514 9.21932L15.7593 7.97849C16.0727 7.75073 15.9116 7.25489 15.5241 7.25489H13.4131C13.3944 7.25489 13.376 7.25359 13.3579 7.25107C13.226 7.23273 13.1116 7.14961 13.0534 7.02986C13.0454 7.01341 13.0385 6.99626 13.0327 6.97849L12.3803 4.97079C12.2606 4.60227 11.7392 4.60227 11.6195 4.97079L10.9672 6.97849ZM11.9949 8.79834L11.9999 8.79471L12.0049 8.79834L12.003 8.80423H11.9968L11.9949 8.79834Z" fill="black"/>
</svg>
