<svg width="24" height="24" viewBox="0 0 24 24" fill="none" xmlns="http://www.w3.org/2000/svg">
<path fill-rule="evenodd" clip-rule="evenodd" d="M8.70712 4.70723C9.09764 4.3167 9.09764 3.68354 8.70712 3.29302C8.31659 2.90249 7.68343 2.90249 7.2929 3.29302L3.05026 7.53566L7.2929 11.7783C7.68343 12.1688 8.31659 12.1688 8.70712 11.7783C9.09764 11.3878 9.09764 10.7546 8.70712 10.3641L6.843 8.49997H14.75C17.0972 8.49997 19 10.4028 19 12.75C19 15.0972 17.0972 17 14.75 17H5.00001C4.44773 17 4.00001 17.4477 4.00001 18C4.00001 18.5523 4.44773 19 5.00001 19H14.75C18.2018 19 21 16.2017 21 12.75C21 9.29819 18.2018 6.49997 14.75 6.49997H6.91438L8.70712 4.70723Z" fill="black"/>
</svg>
