<svg width="20" height="20" viewBox="0 0 20 20" fill="none" xmlns="http://www.w3.org/2000/svg">
<path fill-rule="evenodd" clip-rule="evenodd" d="M11.0024 0.691711C11.9749 0.171383 12.8232 -1.52875e-06 14.1393 1.60009e-05C17.5072 0.0152621 20 3.12017 20 7.07526C20 10.0941 18.4602 13.0102 15.592 15.8301C14.0865 17.3102 12.1643 18.7749 10.7876 19.5542L10 20L9.21237 19.5542C7.83575 18.7749 5.91354 17.3102 4.40804 15.8301C1.53985 13.0102 0 10.0941 0 7.07526C0 3.07786 2.46949 0 5.86777 0C7.13662 0 8.02847 0.187592 9.01983 0.723571C9.36498 0.910178 9.68927 1.13153 9.99088 1.38701C10.3046 1.11635 10.6424 0.884353 11.0024 0.691711Z" fill="#CB0000"/>
</svg>
