<svg width="24" height="24" viewBox="0 0 24 24" fill="none" xmlns="http://www.w3.org/2000/svg">
<path fill-rule="evenodd" clip-rule="evenodd" d="M12 23C5.92487 23 1 18.0751 1 12C1 5.92487 5.92487 1 12 1C18.0751 1 23 5.92487 23 12C23 18.0751 18.0751 23 12 23ZM11.998 21C16.9686 21 20.998 16.9706 20.998 12C20.998 7.02944 16.9686 3 11.998 3C7.02748 3 2.99805 7.02944 2.99805 12C2.99805 16.9706 7.02748 21 11.998 21ZM13.176 8.16023H11V6.24023H13.176V8.16023ZM13.176 18.0002H11V9.36023H13.176V18.0002Z" fill="black"/>
</svg>
