<svg width="24" height="24" viewBox="0 0 24 24" fill="none" xmlns="http://www.w3.org/2000/svg">
<path fill-rule="evenodd" clip-rule="evenodd" d="M12.5189 2.1452L12.5192 2.14535L12.5204 2.14607L12.5286 2.15102L12.5656 2.17307C12.5993 2.19299 12.6506 2.22307 12.7181 2.26187C12.8532 2.33951 13.0529 2.45187 13.3057 2.58739C13.8122 2.85883 14.5276 3.22102 15.361 3.58264C17.0572 4.31865 19.1248 5 20.8889 5C21.4411 5 21.8889 5.44772 21.8889 6C21.8889 11.7991 19.5365 15.784 17.1746 18.3082C15.9987 19.565 14.8229 20.4581 13.9375 21.0392C13.4942 21.3301 13.1218 21.544 12.856 21.6871C12.723 21.7587 12.6164 21.8128 12.5407 21.8499C12.5029 21.8685 12.4727 21.8829 12.4508 21.8932L12.4242 21.9056L12.4156 21.9095L12.4126 21.9109L12.4114 21.9115C12.4108 21.9117 12.4103 21.9119 12 21C11.5896 21.9119 11.5891 21.9117 11.5886 21.9115L11.5874 21.9109L11.5843 21.9095L11.5758 21.9056L11.5491 21.8932C11.5272 21.8829 11.4971 21.8685 11.4592 21.8499C11.3835 21.8128 11.277 21.7587 11.144 21.6871C10.8781 21.544 10.5057 21.3301 10.0624 21.0392C9.17703 20.4581 8.00123 19.565 6.82533 18.3082C4.46347 15.784 2.11108 11.7991 2.11108 6C2.11108 5.44772 2.5588 5 3.11108 5C4.87511 5 6.94279 4.31865 8.63894 3.58264C9.47231 3.22102 10.1878 2.85883 10.6942 2.58739C10.947 2.45187 11.1467 2.33951 11.2818 2.26187C11.3493 2.22307 11.4006 2.19299 11.4343 2.17307L11.4713 2.15102L11.4796 2.14607L11.4808 2.14535L11.481 2.1452C11.7999 1.95161 12.2 1.9516 12.5189 2.14517L12.5189 2.1452ZM12 21L12.4103 21.9119C12.1494 22.0294 11.8506 22.0294 11.5896 21.9119L12 21ZM12.8402 19.3671C12.5015 19.5894 12.214 19.7578 12 19.8759C11.7859 19.7578 11.4985 19.5894 11.1597 19.3671C10.3785 18.8544 9.33205 18.06 8.28573 16.9418C6.3318 14.8535 4.36953 11.6303 4.13454 6.94467C6.01693 6.7485 7.94628 6.06339 9.43508 5.41736C10.3301 5.02898 11.0961 4.64117 11.6391 4.35011C11.7732 4.27822 11.894 4.21209 12 4.15316C12.106 4.21209 12.2267 4.27822 12.3609 4.35011C12.9038 4.64117 13.6698 5.02898 14.5649 5.41736C16.0537 6.06339 17.983 6.7485 19.8654 6.94467C19.6304 11.6303 17.6681 14.8535 15.7142 16.9418C14.6679 18.06 13.6215 18.8544 12.8402 19.3671ZM9.74331 11.331C9.3328 10.9616 8.66723 10.9616 8.25672 11.331C7.84621 11.7005 7.84621 12.2995 8.25672 12.669L11.2518 15.3645L16.1049 10.6424C16.4992 10.2588 16.4732 9.66028 16.0471 9.30549C15.6209 8.9507 14.9558 8.97403 14.5616 9.35759L11.1927 12.6355L9.74331 11.331Z" fill="black"/>
</svg>
