<svg width="24" height="24" viewBox="0 0 24 24" fill="none" xmlns="http://www.w3.org/2000/svg">
<path fill-rule="evenodd" clip-rule="evenodd" d="M16.3839 7L18.2263 10.6847L21.002 12.5352V16H19.8293C19.4175 14.8348 18.3062 14 17 14C15.6938 14 14.5825 14.8348 14.1707 16H9.82929C9.41746 14.8348 8.30622 14 7 14C5.69378 14 4.58254 14.8348 4.17071 16H3.00195V7H16.3839ZM21.002 18H19.8293C19.4175 19.1652 18.3062 20 17 20C15.6938 20 14.5825 19.1652 14.1707 18H9.82929C9.41746 19.1652 8.30622 20 7 20C5.69378 20 4.58254 19.1652 4.17071 18H3.00195C1.89738 18 1.00195 17.1046 1.00195 16V7C1.00195 5.89543 1.89738 5 3.00195 5H16.3839C17.1415 5 17.834 5.428 18.1728 6.10557L19.7776 9.31526L23.002 11.4648V16C23.002 17.1046 22.1065 18 21.002 18ZM8 17C8 17.5523 7.55228 18 7 18C6.44772 18 6 17.5523 6 17C6 16.4477 6.44772 16 7 16C7.55228 16 8 16.4477 8 17ZM18 17C18 17.5523 17.5523 18 17 18C16.4477 18 16 17.5523 16 17C16 16.4477 16.4477 16 17 16C17.5523 16 18 16.4477 18 17Z" fill="black"/>
</svg>
