<svg width="24" height="24" viewBox="0 0 24 24" fill="none" xmlns="http://www.w3.org/2000/svg">
<path fill-rule="evenodd" clip-rule="evenodd" d="M11.0488 2.00195C10.4965 2.00195 10.0488 2.44967 10.0488 3.00195C10.0488 3.53867 10.4717 3.97664 11.0024 4.00089V5.05923C9.17298 5.27576 7.40045 6.08588 5.99674 7.48959C5.60621 7.88011 5.60621 8.51328 5.99674 8.9038C6.38726 9.29433 7.02043 9.29433 7.41095 8.9038C9.94936 6.36539 14.0649 6.36539 16.6033 8.9038C19.1418 11.4422 19.1418 15.5578 16.6033 18.0962C14.0649 20.6346 9.94936 20.6346 7.41095 18.0962C7.02043 17.7057 6.38726 17.7057 5.99674 18.0962C5.60621 18.4867 5.60621 19.1199 5.99674 19.5104C9.3162 22.8299 14.6981 22.8299 18.0176 19.5104C21.1407 16.3873 21.3254 11.4385 18.5718 8.09942C18.6037 8.07442 18.6346 8.0472 18.664 8.01777L19.2731 7.40864C19.6636 7.01812 19.6636 6.38495 19.2731 5.99443C18.8826 5.6039 18.2494 5.6039 17.8589 5.99443L17.2498 6.60356C17.2109 6.64246 17.1758 6.68378 17.1447 6.72703C15.9085 5.78688 14.4737 5.23057 13.0024 5.05811V4.00092C13.5334 3.97691 13.9565 3.53884 13.9565 3.00195C13.9565 2.44967 13.5087 2.00195 12.9565 2.00195H11.0488ZM11.2953 12.779C10.9048 13.1696 10.9048 13.8027 11.2953 14.1933C11.6859 14.5838 12.319 14.5838 12.7095 14.1933L15.342 11.5608C15.7325 11.1703 15.7325 10.5371 15.342 10.1466C14.9515 9.75605 14.3183 9.75605 13.9278 10.1466L11.2953 12.779ZM3.91016 13.4941C3.91016 12.9419 4.35787 12.4941 4.91016 12.4941H7.77159C8.32388 12.4941 8.77159 12.9419 8.77159 13.4941C8.77159 14.0464 8.32388 14.4941 7.77159 14.4941H4.91016C4.35787 14.4941 3.91016 14.0464 3.91016 13.4941ZM3.00195 9.63245C2.44967 9.63245 2.00195 10.0802 2.00195 10.6324C2.00195 11.1847 2.44967 11.6324 3.00195 11.6324H5.86339C6.41568 11.6324 6.86339 11.1847 6.86339 10.6324C6.86339 10.0802 6.41568 9.63245 5.86339 9.63245H3.00195ZM2.00195 16.3553C2.00195 15.8031 2.44967 15.3553 3.00195 15.3553H5.86339C6.41568 15.3553 6.86339 15.8031 6.86339 16.3553C6.86339 16.9076 6.41568 17.3553 5.86339 17.3553H3.00195C2.44967 17.3553 2.00195 16.9076 2.00195 16.3553Z" fill="black"/>
</svg>
