<svg width="24" height="24" viewBox="0 0 24 24" fill="none" xmlns="http://www.w3.org/2000/svg">
<path d="M20.9722 4L21.9701 3.93488C21.9438 3.5321 21.678 3.18461 21.2961 3.05389C20.9142 2.92317 20.4912 3.03485 20.2236 3.33703L20.9722 4ZM20.6885 7.86469C20.6885 7.31241 20.2408 6.86469 19.6885 6.86469C19.1362 6.86469 18.6885 7.31241 18.6885 7.86469H20.6885ZM12 9.02857V10.0286H13V9.02857H12ZM4.28373 4L5.22203 3.65417C5.08369 3.27884 4.735 3.02206 4.33553 3.00134C3.93606 2.98062 3.56267 3.19995 3.38625 3.55895L4.28373 4ZM9.3 15.8857L10.0132 16.5867C10.2544 16.3413 10.3525 15.9891 10.2729 15.6543C10.1932 15.3195 9.94706 15.0492 9.62118 14.9387L9.3 15.8857ZM3 18.3673V17.3673C2.56081 17.3673 2.17303 17.6539 2.04408 18.0737C1.91512 18.4936 2.07519 18.9484 2.43866 19.1949L3 18.3673ZM18.7064 5.27135L17.9594 5.93621L18.3209 6.34242L18.8584 6.25972L18.7064 5.27135ZM19.9743 4.06512C20.0396 5.06453 19.9753 5.6281 19.8354 6.02881C19.703 6.40795 19.4706 6.73486 18.991 7.20181L20.386 8.63492C20.9671 8.06924 21.4451 7.48569 21.7236 6.68816C21.9945 5.91221 22.0418 5.03292 21.9701 3.93488L19.9743 4.06512ZM20.6885 8.81632V7.91837H18.6885V8.81632H20.6885ZM20.6885 7.91837V7.86469H18.6885V7.91837H20.6885ZM11 8.11429V9.02857H13V8.11429H11ZM15.8901 3C13.1164 3 11 5.43588 11 8.11429H13C13 6.40529 14.3515 5 15.8901 5V3ZM18.6885 8.81632C18.6885 14.295 14.157 19 8.85 19V21C15.3299 21 20.6885 15.3301 20.6885 8.81632H18.6885ZM3.34543 4.34583C4.08678 6.35724 6.84208 10.0286 12 10.0286V8.02857C7.91506 8.02857 5.76441 5.12576 5.22203 3.65417L3.34543 4.34583ZM3.38625 3.55895C2.01056 6.35833 1.74945 9.14464 2.73796 11.5478C3.72747 13.9533 5.89114 15.7856 8.97882 16.8327L9.62118 14.9387C6.93207 14.0267 5.30388 12.5283 4.58759 10.7869C3.87029 9.04312 3.98944 6.86616 5.18121 4.44105L3.38625 3.55895ZM8.5868 15.1848C7.87175 15.9123 5.75209 17.3673 3 17.3673V19.3673C6.40981 19.3673 9.01663 17.6006 10.0132 16.5867L8.5868 15.1848ZM19.4533 4.6065C18.5787 3.62387 17.3073 3 15.8901 3V5C16.7067 5 17.444 5.35714 17.9594 5.93621L19.4533 4.6065ZM18.8584 6.25972C19.9251 6.09561 20.9536 5.5294 21.7209 4.66297L20.2236 3.33703C19.7508 3.87095 19.1375 4.19326 18.5543 4.28298L18.8584 6.25972ZM2.43866 19.1949C4.58178 20.6486 6.649 21 8.85 21V19C6.90224 19 5.26941 18.6983 3.56134 17.5398L2.43866 19.1949Z" fill="black"/>
</svg>
