<svg width="24" height="24" viewBox="0 0 24 24" fill="none" xmlns="http://www.w3.org/2000/svg">
<path d="M4.53082 18.292L4.34278 19.2742H4.34278L4.53082 18.292ZM19.4692 18.292L19.6572 19.2742H19.6572L19.4692 18.292ZM19.5717 5.76785L19.7727 4.78825L19.5717 5.76785ZM4.42826 5.76785L4.6292 6.74746H4.6292L4.42826 5.76785ZM10.2 9.38381L10.698 8.51666C10.3886 8.33892 10.0079 8.33957 9.69902 8.51835C9.39017 8.69713 9.2 9.02695 9.2 9.38381H10.2ZM10.2 14.5529H9.2C9.2 14.9098 9.39017 15.2396 9.69902 15.4184C10.0079 15.5971 10.3886 15.5978 10.698 15.4201L10.2 14.5529ZM14.7 11.9684L15.198 12.8355C15.5085 12.6572 15.7 12.3264 15.7 11.9684C15.7 11.6103 15.5085 11.2795 15.198 11.1012L14.7 11.9684ZM2 7.45904V16.5046H4V7.45904H2ZM22 16.5046V7.45904H20V16.5046H22ZM4.34278 19.2742C9.39764 20.2419 14.6024 20.2419 19.6572 19.2742L19.2812 17.3099C14.4747 18.23 9.52525 18.23 4.71885 17.3099L4.34278 19.2742ZM19.7727 4.78825C14.6489 3.73725 9.35108 3.73725 4.22732 4.78825L4.6292 6.74746C9.4878 5.75085 14.5122 5.75085 19.3708 6.74746L19.7727 4.78825ZM22 7.45904C22 6.13959 21.0418 5.04858 19.7727 4.78825L19.3708 6.74746C19.7678 6.82889 20 7.14737 20 7.45904H22ZM20 16.5046C20 16.8639 19.7299 17.224 19.2811 17.3099L19.6572 19.2742C20.9887 19.0193 22 17.8831 22 16.5046H20ZM2 16.5046C2 17.8831 3.01132 19.0193 4.34278 19.2742L4.71885 17.3099C4.2701 17.224 4 16.8639 4 16.5046H2ZM4 7.45904C4 7.14737 4.23219 6.82889 4.6292 6.74746L4.22732 4.78825C2.95816 5.04858 2 6.13959 2 7.45904H4ZM9.2 9.38381V14.5529H11.2V9.38381H9.2ZM10.698 15.4201L15.198 12.8355L14.202 11.1012L9.70196 13.6857L10.698 15.4201ZM15.198 11.1012L10.698 8.51666L9.70196 10.251L14.202 12.8355L15.198 11.1012Z" fill="black"/>
</svg>
